# File created by Blade
# Date/Time:  Tue Sep 23 19:22:32 2014
# Frame Rate: 120.000 fps
#------------------------------------------------------
:FULLY-SPECIFIED
:DEGREES
2059
root 6.422913 34.993538 4.901153 150.593859 -33.045674 -57.410532
Spine -72.678304 -12.498851 13.518673
Head -23.408589 29.027220 33.401924
LeftShoulder -27.348118 33.908306 35.985536
LeftArm 164.907989 -76.390679 -199.376254
LeftForeArm 30.754952 -0.000000 110.343766
LeftHand 24.704651 -0.000000 21.467995
LeftHandThumb1 -26.253704 0.000000 33.147579
RightShoulder -49.300516 -48.226330 6.483196
RightArm 20.563005 52.485350 83.486500
RightForeArm 93.938060 -0.000000 -1.563866
RightHand 14.716026 -0.000000 28.761248
RightHandThumb1 -24.326973 -0.000000 -32.862282
LeftUpLeg -106.330469 42.532066 -2.839716
LeftLeg 4.623387 -0.000000 -0.000000
LeftFoot -7.265995 -2.283805 -5.103859
LeftToeBase 13.133924 -0.000000 -0.000000
RightUpLeg -1.379261 -6.236842 -25.728726
RightLeg 94.035450 -0.000000 -0.000000
RightFoot 47.514867 27.105101 2.805263
RightToeBase 23.357850 -0.000000 -0.000000
2060
root 6.442655 34.992943 4.923852 150.703582 -33.383864 -57.682405
Spine -72.440457 -12.497853 12.938124
Head -23.763686 29.028995 32.966681
LeftShoulder -27.457881 33.689663 35.844243
LeftArm 165.397279 -76.508683 -200.447124
LeftForeArm 31.433377 -0.000000 110.467676
LeftHand 24.183182 -0.000000 22.084882
LeftHandThumb1 -26.253704 0.000000 33.147579
RightShoulder -49.788083 -48.471504 6.873460
RightArm 20.194666 50.746950 83.013180
RightForeArm 94.886152 -0.000000 -3.719814
RightHand 14.628021 0.000000 29.334139
RightHandThumb1 -24.326973 -0.000000 -32.862282
LeftUpLeg -105.926792 42.403823 -2.815443
LeftLeg 4.509105 -0.000000 -0.000000
LeftFoot -7.286075 -2.569788 -5.400803
LeftToeBase 13.401517 -0.000000 -0.000000
RightUpLeg -1.668198 -6.523193 -25.309845
RightLeg 94.528708 -0.000000 -0.000000
RightFoot 47.752660 26.138186 3.049951
RightToeBase 23.562408 -0.000000 -0.000000
2061
root 6.461104 34.989830 4.948214 150.840923 -33.806527 -57.959838
Spine -72.274794 -12.554799 12.344701
Head -24.039444 29.057575 32.531739
LeftShoulder -27.508438 33.502207 35.708435
LeftArm 166.004356 -76.566591 -201.616228
LeftForeArm 32.293872 -0.000000 110.529696
LeftHand 23.495941 -0.000000 22.701668
LeftHandThumb1 -26.253704 0.000000 33.147579
RightShoulder -50.215549 -48.669643 7.217682
RightArm 19.800175 49.111798 82.559058
RightForeArm 96.149642 -0.000000 -5.822622
RightHand 14.156670 0.000000 30.044145
RightHandThumb1 -24.326973 -0.000000 -32.862282
LeftUpLeg -105.607129 42.181027 -2.968138
LeftLeg 4.370484 -0.000000 -0.000000
LeftFoot -7.403069 -2.918381 -5.826955
LeftToeBase 14.057004 -0.000000 -0.000000
RightUpLeg -1.945608 -6.928533 -24.959419
RightLeg 95.033887 -0.000000 -0.000000
RightFoot 47.809195 25.910660 2.844239
RightToeBase 23.715574 -0.000000 -0.000000
2062
root 6.474603 34.989025 4.970334 151.088544 -34.163662 -58.327713
Spine -72.168778 -12.532387 11.796457
Head -24.251171 29.061935 32.104770
LeftShoulder -27.589643 33.359936 35.581822
LeftArm 166.616257 -76.673787 -202.804804
LeftForeArm 33.566107 0.000000 110.531899
LeftHand 22.497284 0.000000 23.461216
LeftHandThumb1 -26.253704 0.000000 33.147579
RightShoulder -50.745491 -48.829402 7.615700
RightArm 19.641391 47.610391 82.338942
RightForeArm 97.516727 -0.000000 -7.774129
RightHand 13.513445 0.000000 31.048959
RightHandThumb1 -24.326973 -0.000000 -32.862282
LeftUpLeg -105.338072 42.082419 -3.169304
LeftLeg 4.254945 -0.000000 -0.000000
LeftFoot -7.438364 -3.300810 -6.038932
LeftToeBase 14.026426 -0.000000 -0.000000
RightUpLeg -2.335831 -7.286492 -24.617072
RightLeg 95.611574 -0.000000 -0.000000
RightFoot 47.485935 26.505051 2.243032
RightToeBase 23.902707 -0.000000 -0.000000
2063
root 6.491917 34.986661 4.986845 151.162279 -34.489589 -58.636294
Spine -71.915416 -12.548654 11.340357
Head -24.451334 29.131530 31.686450
LeftShoulder -27.631246 33.212379 35.468528
LeftArm 167.892228 -76.855327 -204.657166
LeftForeArm 34.412529 -0.000000 110.437543
LeftHand 21.798977 -0.000000 24.253469
LeftHandThumb1 -26.253704 0.000000 33.147579
RightShoulder -51.133578 -48.876082 7.878251
RightArm 19.523779 46.636505 82.321034
RightForeArm 98.790323 -0.000000 -9.447827
RightHand 13.042311 0.000000 31.608440
RightHandThumb1 -24.326973 -0.000000 -32.862282
LeftUpLeg -104.833526 42.033575 -3.020982
LeftLeg 4.228940 -0.000000 -0.000000
LeftFoot -7.564974 -3.652104 -6.398117
LeftToeBase 14.006391 -0.000000 -0.000000
RightUpLeg -2.580011 -7.600976 -24.246130
RightLeg 96.197053 -0.000000 -0.000000
RightFoot 47.467348 26.576909 2.131725
RightToeBase 24.127090 -0.000000 -0.000000
